<?xml version="1.0" standalone="no"?>
<!DOCTYPE svg PUBLIC "-//W3C//DTD SVG 20010904//EN"
 "http://www.w3.org/TR/2001/REC-SVG-20010904/DTD/svg10.dtd">
<svg version="1.0" xmlns="http://www.w3.org/2000/svg"
 width="1382.000000pt" height="1382.000000pt" viewBox="0 0 1382.000000 1382.000000"
 preserveAspectRatio="xMidYMid meet">

<g transform="translate(0.000000,1382.000000) scale(0.100000,-0.100000)"
fill="#000000" stroke="none">
<path d="M0 6910 l0 -6910 6910 0 6910 0 0 6910 0 6910 -6910 0 -6910 0 0
-6910z m4815 5370 c114 -41 271 -118 335 -165 155 -114 221 -278 173 -430 -17
-51 -223 -417 -338 -598 -67 -105 -153 -205 -252 -291 -107 -93 -156 -157
-179 -231 -20 -68 -18 -161 6 -239 22 -68 58 -139 69 -134 3 2 38 22 76 45
297 178 624 188 882 27 76 -47 197 -153 233 -204 l19 -27 -127 43 c-272 92
-498 108 -637 45 l-40 -18 55 2 c74 2 156 -18 239 -59 70 -36 208 -134 249
-179 23 -24 21 -24 -63 10 -152 61 -264 85 -400 85 -141 0 -217 -19 -311 -80
-114 -74 -194 -197 -194 -298 0 -104 57 -158 181 -171 l61 -6 -31 44 c-74 105
-41 241 73 302 58 31 223 30 309 -1 78 -28 175 -99 227 -164 l42 -53 -69 -8
c-78 -8 -119 -20 -183 -52 -53 -27 -129 -105 -159 -163 -86 -169 -76 -450 30
-807 l21 -70 -45 -40 c-151 -136 -362 -191 -519 -136 -49 17 -168 84 -168 95
0 2 24 -1 53 -6 128 -24 272 17 347 98 39 43 88 129 79 138 -3 3 -27 -1 -54
-9 -91 -28 -170 -14 -233 41 l-37 32 30 7 c137 29 213 80 250 168 15 37 15 42
-6 105 -34 107 -123 282 -176 347 -32 41 -66 69 -102 88 -62 31 -96 34 -146
12 -36 -14 -139 -106 -156 -137 -9 -16 -7 -16 26 -3 48 21 104 19 143 -5 17
-11 32 -21 32 -24 0 -2 -25 -4 -55 -5 -93 -2 -192 -68 -239 -160 -21 -40 -21
-42 14 -25 44 23 96 28 130 14 36 -15 34 -20 -12 -26 -119 -18 -242 -141 -311
-309 -15 -38 -35 -77 -43 -87 -21 -22 -11 -50 31 -87 41 -36 95 -48 147 -34
37 10 38 9 23 -7 -41 -45 -182 -50 -288 -10 l-50 19 -39 -34 c-21 -19 -47 -35
-58 -35 -30 0 -24 -18 18 -60 58 -58 166 -73 284 -40 48 14 45 5 -7 -26 -112
-65 -246 -64 -380 3 -56 29 -147 96 -185 138 -14 15 -43 35 -66 45 -91 40
-134 102 -119 170 7 31 101 142 137 161 17 9 17 5 -5 -38 -45 -90 -44 -143 4
-143 22 0 168 137 242 228 30 37 69 93 87 125 l32 58 -16 66 c-48 191 -23 408
70 609 49 104 48 98 14 74 -38 -27 -75 -75 -95 -123 -8 -20 -18 -37 -22 -37
-3 0 -3 78 0 173 7 195 27 304 79 444 52 138 91 196 227 333 67 69 141 151
163 183 135 197 174 442 98 610 -24 52 -26 120 -4 141 46 46 123 -10 143 -104
16 -74 14 -286 -4 -372 -22 -106 -79 -214 -194 -373 -130 -177 -177 -258 -197
-336 -18 -68 -15 -105 12 -165 l17 -39 9 53 c24 154 157 380 364 621 51 59
181 193 290 297 291 277 369 359 424 440 122 183 129 326 21 434 -92 92 -166
115 -391 124 -52 2 -115 9 -139 17 -55 16 -121 77 -121 110 0 101 154 127 345
59z m3229 -529 c61 -22 146 -69 182 -102 21 -19 21 -21 6 -84 -9 -36 -21 -65
-27 -65 -6 0 -27 16 -46 36 -111 118 -271 160 -375 99 -108 -63 -161 -257
-102 -373 42 -82 162 -139 272 -130 l40 3 17 67 c15 62 15 68 0 72 -9 2 -49
12 -88 21 -40 10 -73 19 -73 21 0 32 25 104 36 104 21 0 278 -62 286 -69 7 -6
-65 -307 -76 -319 -4 -3 -57 -8 -120 -10 -170 -7 -284 33 -371 130 -80 89
-100 222 -57 364 39 126 119 213 231 249 60 20 187 13 265 -14z m-2616 -409
c1 -92 7 -178 17 -227 18 -94 68 -200 108 -229 34 -25 138 -34 192 -16 121 40
188 197 178 417 l-3 93 78 -80 c170 -173 363 -201 609 -90 58 26 164 92 225
140 l27 21 -11 -38 c-21 -79 -69 -162 -127 -220 -116 -117 -268 -171 -505
-181 l-148 -7 63 -38 c106 -62 184 -82 324 -81 168 1 295 39 455 137 41 25 77
44 78 42 7 -7 -30 -119 -54 -167 -39 -77 -124 -153 -228 -203 -125 -61 -228
-84 -416 -94 -126 -7 -165 -12 -205 -30 -82 -36 -150 -113 -175 -198 l-13 -41
-86 88 c-70 71 -101 95 -171 129 -47 22 -118 48 -158 56 -157 32 -369 11 -554
-54 -47 -17 -90 -31 -94 -31 -4 0 -4 27 -1 61 10 117 85 219 213 290 157 88
277 286 348 571 17 71 32 128 32 128 1 0 2 -67 2 -148z m3700 -33 c114 -62
208 -113 210 -114 2 -2 -9 -26 -25 -53 l-29 -50 -74 39 c-41 22 -112 60 -157
85 -44 24 -83 44 -86 44 -3 0 -21 -29 -40 -65 -24 -46 -31 -67 -23 -73 6 -5
76 -44 156 -87 80 -42 146 -79 148 -80 6 -6 -49 -106 -56 -102 -104 59 -314
168 -317 166 -2 -2 -26 -46 -53 -97 l-51 -92 22 -14 c12 -7 83 -46 157 -86 74
-39 137 -73 138 -75 2 -2 -8 -26 -24 -54 l-27 -51 -71 39 c-39 21 -137 73
-218 116 l-147 79 28 50 c15 28 92 171 171 319 78 147 147 267 152 267 6 0
103 -50 216 -111z m836 -564 l59 -55 -70 -277 c-39 -153 -70 -279 -70 -280 1
0 76 81 167 182 91 101 170 184 175 184 6 1 28 -17 49 -38 l39 -40 -240 -263
c-132 -145 -244 -263 -250 -263 -6 0 -31 19 -57 43 l-47 43 77 300 c42 165 74
302 72 304 -2 2 -87 -88 -188 -200 l-185 -204 -42 41 c-36 35 -40 44 -30 57
32 42 470 521 476 521 3 -1 33 -25 65 -55z m-2584 -212 c-112 -448 -380 -759
-765 -888 l-79 -27 -96 24 c-121 29 -295 31 -415 4 -130 -29 -298 -106 -387
-177 -20 -16 -39 -29 -42 -29 -3 0 -6 19 -6 43 0 23 -9 60 -19 82 -38 84 -177
178 -328 222 -35 10 -63 21 -63 25 0 9 117 15 235 12 116 -3 221 -25 282 -59
41 -23 43 -23 43 -4 0 63 -107 195 -220 273 l-55 38 69 -6 c90 -7 191 -55 267
-124 31 -29 66 -52 76 -52 27 0 92 48 126 93 32 42 80 135 112 217 l21 54 74
24 c137 43 258 60 480 68 80 3 177 12 215 21 144 32 313 116 434 214 31 25 58
45 59 43 2 -1 -6 -42 -18 -91z m564 -207 c145 -43 267 -110 410 -224 190 -152
398 -266 564 -308 81 -21 114 -25 198 -21 87 3 110 8 168 35 65 31 67 31 61 9
-13 -43 -71 -130 -128 -193 -222 -242 -740 -490 -1370 -654 l-158 -41 -67 27
c-242 97 -505 155 -720 158 l-93 1 33 29 c255 222 393 387 501 602 84 165 137
368 137 525 l0 56 53 11 c28 7 61 14 72 16 11 3 72 3 135 1 87 -2 136 -9 204
-29z m2971 -653 c72 -107 130 -199 130 -204 0 -12 -89 -69 -96 -61 -4 4 -48
70 -99 147 -51 77 -94 142 -96 144 -2 2 -32 -15 -68 -38 l-64 -42 95 -141 c52
-78 97 -147 100 -154 4 -10 -85 -80 -92 -72 -1 2 -44 66 -95 143 -51 77 -96
144 -100 148 -4 5 -49 -19 -99 -52 l-91 -62 101 -151 101 -151 -23 -17 c-12
-10 -35 -25 -49 -34 l-27 -15 -136 205 -136 205 297 199 c163 109 302 199 307
199 6 0 69 -88 140 -196z m-3838 58 c-18 -173 -162 -386 -388 -576 -75 -63
-96 -75 -127 -76 -20 0 -44 -2 -52 -3 -8 -2 -51 -6 -95 -10 -279 -25 -587
-128 -800 -268 -101 -66 -249 -213 -300 -298 l-39 -64 -39 84 c-108 236 -151
457 -112 586 23 78 67 129 143 166 63 31 73 33 185 35 98 2 123 5 150 22 166
102 395 178 600 199 96 9 309 6 372 -7 47 -9 55 -7 121 24 78 38 217 127 308
199 33 25 64 46 69 46 6 0 7 -23 4 -59z m2354 -448 c178 -183 308 -353 380
-499 42 -85 68 -123 119 -175 81 -81 204 -163 374 -249 122 -62 380 -170 405
-170 6 0 11 -4 11 -8 0 -11 -237 -56 -395 -76 -66 -9 -138 -18 -160 -21 -22
-3 -148 -8 -280 -11 -186 -5 -272 -3 -383 10 -420 47 -708 159 -932 362 -98
89 -438 302 -615 385 -86 40 -86 41 15 59 124 22 396 92 540 140 304 100 540
220 720 364 25 20 48 36 51 36 4 0 71 -66 150 -147z m1974 -558 c68 -193 70
-262 8 -336 -67 -79 -206 -96 -292 -34 l-34 24 -42 -72 c-23 -40 -67 -119 -99
-175 -32 -57 -62 -100 -66 -95 -4 4 -17 38 -30 75 l-22 68 90 156 89 156 -17
47 c-10 25 -22 45 -26 44 -5 -1 -62 -21 -127 -44 -68 -24 -122 -38 -126 -33
-9 10 -43 106 -38 109 4 3 672 244 678 245 3 0 27 -61 54 -135z m-7115 -175
c16 -204 8 -601 -15 -750 -33 -220 -89 -403 -160 -520 -18 -30 -46 -91 -61
-135 -24 -71 -28 -94 -27 -200 0 -138 25 -240 93 -383 41 -86 117 -211 153
-249 34 -38 13 -35 -51 7 -120 77 -212 181 -280 315 -73 145 -106 281 -117
480 -4 66 -9 122 -11 124 -7 8 -129 -117 -164 -169 -131 -192 -197 -433 -201
-732 -1 -60 -4 -108 -5 -108 -10 0 -85 166 -113 248 -110 320 -88 597 65 828
21 31 92 113 158 183 182 190 279 316 426 556 132 215 255 505 276 649 11 77
20 36 34 -144z m-887 -293 c166 -111 325 -168 449 -162 l67 3 -26 -52 c-64
-127 -168 -242 -303 -333 -42 -28 -92 -69 -113 -92 -77 -86 -162 -242 -196
-362 -13 -46 -20 -58 -24 -44 -12 41 -55 262 -62 320 -4 32 -9 68 -12 80 -2
11 -7 90 -10 176 -6 167 5 276 38 383 22 74 76 159 92 148 7 -4 51 -33 100
-65z m5541 -137 c119 -47 327 -99 501 -125 22 -3 130 -8 241 -12 181 -5 314 1
471 23 l41 6 21 -68 c77 -254 130 -532 136 -720 3 -100 9 -144 25 -187 46
-123 202 -301 380 -433 50 -36 90 -68 90 -69 0 -6 -148 26 -279 59 -434 111
-805 285 -1087 511 -147 118 -249 254 -285 380 -35 126 -40 138 -109 280 -83
171 -154 280 -235 362 -59 59 -60 61 -24 43 20 -11 71 -33 113 -50z m2066
-440 c19 -6 179 -47 355 -91 176 -45 325 -87 331 -93 7 -6 15 -41 19 -77 l6
-65 -228 -109 c-125 -59 -281 -135 -347 -167 -65 -33 -120 -57 -123 -54 -3 3
-7 33 -10 68 l-5 63 91 42 c77 35 91 45 90 65 0 13 -6 75 -12 137 l-12 115
-98 24 c-106 27 -101 21 -110 110 -6 46 -3 48 53 32z m-8465 -131 c41 -15 75
-38 111 -73 64 -65 88 -130 87 -237 0 -82 -11 -126 -51 -206 l-25 -53 -64 0
c-80 0 -86 12 -37 77 153 199 53 396 -201 395 -149 -1 -233 -89 -223 -234 4
-58 28 -126 60 -170 21 -29 -1 -39 -67 -30 l-60 7 -23 65 c-30 87 -27 230 7
305 38 87 116 151 208 175 63 16 210 5 278 -21z m6500 -454 c13 -66 28 -158
34 -205 14 -123 6 -455 -14 -580 -42 -265 -136 -541 -257 -755 -360 -633 -956
-1038 -1678 -1141 -146 -21 -443 -21 -594 0 -850 120 -1557 701 -1831 1505
-52 154 -56 192 -6 69 195 -486 590 -914 1066 -1155 342 -173 658 -245 1055
-239 364 6 654 77 973 237 686 345 1140 1002 1228 1779 14 129 6 472 -15 582
-25 136 -26 144 -6 83 11 -33 31 -114 45 -180z m455 -128 c224 -180 519 -348
745 -422 66 -22 121 -41 123 -41 5 -3 -36 -223 -58 -309 -11 -44 -40 -120 -65
-170 -76 -153 -95 -273 -90 -565 2 -107 6 -228 10 -269 8 -73 8 -73 -13 -62
-12 6 -90 80 -174 164 -247 246 -398 442 -503 652 -98 195 -104 229 -109 595
-4 324 -13 413 -60 552 l-22 67 66 -62 c36 -34 103 -93 150 -130z m-5694 -107
c37 -175 121 -397 272 -716 49 -104 96 -210 106 -235 19 -52 127 -237 219
-374 84 -126 198 -267 288 -356 l77 -77 -59 24 c-231 94 -569 71 -838 -56 -79
-38 -83 -39 -77 -18 55 189 46 460 -24 730 -12 45 -48 162 -80 258 -32 96 -63
200 -69 230 -17 92 -7 332 18 424 23 86 85 223 123 271 l23 30 3 -30 c1 -17
10 -64 18 -105z m7502 -339 c163 -22 323 -43 354 -46 l58 -7 -6 -57 c-4 -31
-9 -59 -13 -63 -4 -4 -74 1 -156 12 -366 50 -440 58 -446 52 -3 -4 -14 -72
-23 -152 -10 -80 -20 -153 -22 -162 -6 -19 -37 -23 -91 -12 l-29 6 12 81 c6
45 14 105 17 132 4 28 11 84 17 125 5 41 11 87 12 103 1 15 6 27 11 27 4 0
142 -18 305 -39z m-8562 -72 l11 -60 -119 -106 c-65 -58 -115 -110 -111 -114
4 -4 72 -33 149 -64 l141 -56 11 -62 c5 -34 9 -63 7 -65 -1 -1 -97 36 -214 83
l-212 86 -145 -26 c-80 -14 -147 -25 -149 -25 -2 0 -6 19 -10 43 -3 23 -9 49
-11 58 -4 14 15 20 113 38 65 12 131 24 146 27 18 4 93 64 200 159 95 84 174
151 177 148 3 -2 10 -32 16 -64z m6722 -727 c91 -209 209 -381 349 -511 l86
-79 -59 -84 c-32 -45 -113 -150 -179 -231 -66 -82 -135 -167 -153 -190 -115
-143 -227 -426 -288 -727 -9 -47 -20 -89 -24 -93 -10 -11 -86 303 -115 473
-71 426 -54 745 53 955 87 173 187 529 207 740 l7 69 38 -114 c21 -63 56 -157
78 -208z m-6422 -379 c96 -205 110 -262 78 -329 -31 -65 -128 -101 -198 -74
-25 9 -26 8 -26 -26 0 -66 -53 -132 -129 -159 -61 -21 -99 -19 -159 11 -66 33
-100 76 -162 210 -29 60 -59 124 -67 142 -9 18 -14 34 -12 36 2 2 63 30 134
63 282 130 323 149 395 185 41 20 81 37 88 37 7 1 33 -43 58 -96z m1546 -273
c111 -28 208 -76 328 -165 301 -221 638 -434 865 -546 l50 -24 -95 -6 c-220
-15 -441 -116 -608 -279 l-63 -61 -42 24 c-23 14 -91 60 -152 102 -299 209
-501 403 -608 581 -83 138 -219 211 -403 217 -40 1 -70 5 -68 8 2 3 45 26 96
51 242 119 481 152 700 98z m4360 -155 c-12 -53 -16 -125 -16 -295 -1 -220 8
-302 50 -476 5 -18 -8 -30 -83 -77 -191 -118 -453 -248 -547 -271 -47 -12
-165 -93 -239 -165 -114 -109 -195 -265 -199 -380 l-1 -46 -6 45 c-8 53 -6
257 4 362 23 252 109 506 225 660 64 84 118 129 255 213 216 132 429 311 526
445 24 33 44 58 45 57 1 -1 -5 -33 -14 -72z m1252 -300 c25 -20 46 -40 46 -46
0 -5 -24 -20 -53 -33 -102 -45 -187 -140 -187 -210 0 -47 6 -58 38 -75 37 -20
65 -6 158 74 103 91 148 115 209 115 56 0 92 -18 132 -64 62 -70 68 -167 17
-267 -30 -61 -150 -184 -206 -214 l-37 -19 -38 27 c-91 65 -91 64 -6 95 152
56 263 239 180 297 -49 34 -77 21 -200 -91 -98 -90 -172 -112 -252 -75 -149
67 -154 242 -11 398 52 58 132 122 152 123 6 0 32 -16 58 -35z m-6396 -448
c15 -17 14 -21 -23 -52 -22 -19 -43 -34 -46 -35 -3 0 -55 58 -114 130 -62 73
-113 126 -119 123 -26 -16 -96 -78 -96 -86 0 -4 47 -64 105 -133 58 -68 105
-128 104 -132 0 -4 -18 -22 -40 -39 l-41 -33 -106 130 c-59 71 -111 129 -115
129 -10 1 -157 -119 -157 -128 0 -3 47 -62 105 -131 58 -69 105 -128 105 -131
0 -9 -68 -69 -78 -69 -9 0 -290 333 -294 348 -2 6 116 109 260 231 l264 220
135 -162 c75 -89 143 -170 151 -180z m4192 40 c-103 -153 -161 -332 -206 -633
-4 -29 -9 -33 -67 -47 -75 -19 -278 -53 -365 -62 -84 -8 -352 -8 -429 1 -56 5
-75 2 -190 -36 -136 -45 -247 -95 -300 -136 l-33 -25 11 28 c60 160 217 411
343 550 103 114 258 204 376 218 97 12 441 75 575 106 137 31 263 70 305 94
14 8 26 14 27 15 0 0 -21 -33 -47 -73z m-2001 51 c27 -4 77 -22 112 -39 85
-42 274 -104 395 -131 78 -17 132 -22 255 -23 l156 0 -50 -27 c-75 -41 -154
-104 -231 -183 -73 -75 -192 -246 -223 -320 l-18 -45 -45 6 c-63 9 -309 70
-403 99 -134 43 -269 96 -370 147 -204 102 -424 119 -519 40 -64 -54 46 91
144 189 152 153 343 255 535 289 61 11 199 10 262 -2z m3514 -447 c31 -40 45
-70 35 -71 -2 -1 -30 -3 -63 -6 -33 -3 -80 -12 -104 -21 -50 -18 -115 -73
-137 -115 -68 -132 86 -363 241 -362 109 1 182 68 244 227 6 15 15 27 19 27
10 0 82 -88 82 -100 0 -13 -72 -126 -98 -153 -76 -80 -205 -134 -294 -124 -66
8 -160 61 -213 119 -177 197 -158 416 49 550 51 33 156 76 191 77 6 1 28 -21
48 -48z m-5163 -122 c155 -109 195 -164 188 -254 -9 -102 -99 -186 -203 -187
l-46 -1 6 -56 c18 -163 32 -326 29 -329 -1 -2 -32 17 -67 42 l-65 46 -8 123
c-4 67 -9 125 -10 130 -1 4 -2 24 -3 46 -1 32 -7 42 -39 65 -21 14 -41 26 -44
26 -3 0 -38 -47 -78 -104 l-73 -104 -48 31 c-27 18 -48 37 -47 43 7 26 394
562 403 556 5 -3 53 -36 105 -73z m4200 -490 c0 -4 -18 -14 -39 -23 l-40 -15
74 -168 c40 -92 84 -194 99 -226 l25 -58 31 16 c41 21 47 18 70 -32 l18 -41
-128 -56 c-70 -31 -132 -56 -137 -56 -9 0 -43 63 -43 80 0 5 16 16 35 24 19 8
35 18 35 21 0 3 -23 59 -51 123 -28 64 -64 146 -79 182 -15 36 -35 82 -44 103
l-16 37 -36 -15 c-20 -8 -38 -15 -40 -15 -10 0 -44 84 -37 91 4 4 64 32 133
62 l125 54 22 -41 c12 -23 22 -44 23 -47z m-3292 -21 c29 -11 55 -25 57 -31 3
-7 21 -127 41 -267 20 -140 37 -256 38 -258 2 -1 38 98 81 220 43 123 79 225
81 227 7 8 104 -34 104 -44 0 -11 -219 -636 -225 -643 -1 -1 -31 8 -66 20
l-63 23 -22 150 c-56 382 -65 437 -70 432 -2 -2 -42 -111 -89 -242 -46 -130
-86 -239 -88 -241 -5 -5 -96 26 -102 36 -3 5 165 494 220 638 5 14 14 13 103
-20z m2529 -223 l9 -54 -50 -10 c-28 -6 -79 -15 -113 -22 -52 -10 -63 -15 -63
-32 0 -10 20 -128 44 -261 25 -132 46 -252 48 -265 3 -23 -2 -26 -55 -37 -31
-6 -59 -9 -61 -5 -1 3 -25 131 -52 283 -45 255 -51 278 -69 278 -11 -1 -63 -9
-116 -19 l-97 -18 -10 51 c-6 28 -7 54 -4 58 6 6 522 104 563 107 11 1 18 -14
26 -54z m-1357 -49 c36 -3 112 -8 170 -12 58 -3 108 -8 113 -11 6 -3 0 -101
-7 -109 0 -1 -77 4 -171 11 -93 7 -171 12 -171 11 -1 0 -4 -33 -6 -72 l-5 -71
101 -7 c153 -10 241 -18 245 -22 2 -2 0 -28 -3 -58 -5 -35 -12 -54 -19 -51 -7
2 -57 6 -112 10 -55 3 -126 8 -157 11 -43 4 -59 2 -62 -8 -3 -7 -7 -54 -10
-105 l-6 -91 97 -7 c215 -15 248 -20 247 -32 -1 -7 -2 -34 -2 -59 -2 -44 -3
-45 -29 -40 -16 3 -80 8 -143 12 -63 3 -155 9 -205 13 l-90 6 0 50 c0 28 4 95
8 150 4 55 12 165 17 245 6 80 13 169 16 198 l6 54 56 -6 c31 -3 86 -8 122
-10z"/>
<path d="M4124 9827 c-68 -97 -118 -182 -155 -263 -34 -74 -69 -201 -69 -247
l0 -30 44 41 c53 49 94 71 149 81 47 8 44 -6 31 151 -7 84 7 194 36 279 10 30
18 57 17 58 -1 0 -25 -31 -53 -70z"/>
<path d="M11180 8664 c-52 -20 -96 -37 -99 -39 -10 -11 54 -137 81 -160 33
-28 64 -31 112 -11 40 17 66 51 66 86 -1 33 -43 153 -55 156 -6 1 -53 -13
-105 -32z"/>
<path d="M11293 7393 c5 -49 11 -90 13 -92 2 -2 61 22 130 54 l127 59 -129 33
c-71 18 -134 33 -139 33 -8 0 -8 -27 -2 -87z"/>
<path d="M2877 5254 c-37 -19 -66 -38 -64 -42 2 -4 19 -38 37 -75 17 -37 43
-75 56 -84 44 -28 114 6 114 56 0 14 -17 61 -38 103 l-37 77 -68 -35z"/>
<path d="M2607 5128 c-48 -23 -87 -44 -87 -47 0 -3 22 -46 48 -96 37 -70 56
-94 84 -110 35 -19 37 -19 77 0 54 24 65 38 63 86 -2 41 -73 209 -89 209 -5 0
-48 -19 -96 -42z"/>
<path d="M4217 3529 c-32 -44 -59 -85 -60 -90 -3 -13 121 -89 145 -89 56 0
125 76 113 123 -7 26 -45 65 -106 110 l-35 26 -57 -80z"/>
</g>
</svg>
